<svg width="222" height="32" viewBox="0 0 222 32" fill="none" xmlns="http://www.w3.org/2000/svg">
<path d="M42.0403 10.436C43.3603 10.436 44.5183 10.694 45.5143 11.21C46.5223 11.726 47.2963 12.464 47.8363 13.424C48.3883 14.372 48.6643 15.476 48.6643 16.736C48.6643 17.996 48.3883 19.1 47.8363 20.048C47.2963 20.984 46.5223 21.71 45.5143 22.226C44.5183 22.742 43.3603 23 42.0403 23H37.6483V10.436H42.0403ZM41.9503 20.858C43.2703 20.858 44.2903 20.498 45.0103 19.778C45.7303 19.058 46.0903 18.044 46.0903 16.736C46.0903 15.428 45.7303 14.408 45.0103 13.676C44.2903 12.932 43.2703 12.56 41.9503 12.56H40.1683V20.858H41.9503ZM58.2546 20.606H53.2506L52.4226 23H49.7766L54.2946 10.418H57.2286L61.7466 23H59.0826L58.2546 20.606ZM57.5706 18.59L55.7526 13.334L53.9346 18.59H57.5706ZM74.1814 23H71.6614L65.9554 14.378V23H63.4354V10.418H65.9554L71.6614 19.058V10.418H74.1814V23ZM89.5108 10.436V12.47H86.1628V23H83.6428V12.47H80.2948V10.436H89.5108ZM93.8694 14.576C94.1934 14.048 94.6134 13.634 95.1294 13.334C95.6574 13.034 96.2574 12.884 96.9294 12.884V15.53H96.2634C95.4714 15.53 94.8714 15.716 94.4634 16.088C94.0674 16.46 93.8694 17.108 93.8694 18.032V23H91.3494V13.028H93.8694V14.576ZM97.9788 17.978C97.9788 16.97 98.1768 16.076 98.5728 15.296C98.9808 14.516 99.5268 13.916 100.211 13.496C100.907 13.076 101.681 12.866 102.533 12.866C103.277 12.866 103.925 13.016 104.477 13.316C105.041 13.616 105.491 13.994 105.827 14.45V13.028H108.365V23H105.827V21.542C105.503 22.01 105.053 22.4 104.477 22.712C103.913 23.012 103.259 23.162 102.515 23.162C101.675 23.162 100.907 22.946 100.211 22.514C99.5268 22.082 98.9808 21.476 98.5728 20.696C98.1768 19.904 97.9788 18.998 97.9788 17.978ZM105.827 18.014C105.827 17.402 105.707 16.88 105.467 16.448C105.227 16.004 104.903 15.668 104.495 15.44C104.087 15.2 103.649 15.08 103.181 15.08C102.713 15.08 102.281 15.194 101.885 15.422C101.489 15.65 101.165 15.986 100.913 16.43C100.673 16.862 100.553 17.378 100.553 17.978C100.553 18.578 100.673 19.106 100.913 19.562C101.165 20.006 101.489 20.348 101.885 20.588C102.293 20.828 102.725 20.948 103.181 20.948C103.649 20.948 104.087 20.834 104.495 20.606C104.903 20.366 105.227 20.03 105.467 19.598C105.707 19.154 105.827 18.626 105.827 18.014ZM112.104 11.84C111.66 11.84 111.288 11.702 110.988 11.426C110.7 11.138 110.556 10.784 110.556 10.364C110.556 9.944 110.7 9.596 110.988 9.32C111.288 9.032 111.66 8.888 112.104 8.888C112.548 8.888 112.914 9.032 113.202 9.32C113.502 9.596 113.652 9.944 113.652 10.364C113.652 10.784 113.502 11.138 113.202 11.426C112.914 11.702 112.548 11.84 112.104 11.84ZM113.346 13.028V23H110.826V13.028H113.346ZM121.362 12.884C122.55 12.884 123.51 13.262 124.242 14.018C124.974 14.762 125.34 15.806 125.34 17.15V23H122.82V17.492C122.82 16.7 122.622 16.094 122.226 15.674C121.83 15.242 121.29 15.026 120.606 15.026C119.91 15.026 119.358 15.242 118.95 15.674C118.554 16.094 118.356 16.7 118.356 17.492V23H115.836V13.028H118.356V14.27C118.692 13.838 119.118 13.502 119.634 13.262C120.162 13.01 120.738 12.884 121.362 12.884ZM129.014 11.84C128.57 11.84 128.198 11.702 127.898 11.426C127.61 11.138 127.466 10.784 127.466 10.364C127.466 9.944 127.61 9.596 127.898 9.32C128.198 9.032 128.57 8.888 129.014 8.888C129.458 8.888 129.824 9.032 130.112 9.32C130.412 9.596 130.562 9.944 130.562 10.364C130.562 10.784 130.412 11.138 130.112 11.426C129.824 11.702 129.458 11.84 129.014 11.84ZM130.256 13.028V23H127.736V13.028H130.256ZM138.272 12.884C139.46 12.884 140.42 13.262 141.152 14.018C141.884 14.762 142.25 15.806 142.25 17.15V23H139.73V17.492C139.73 16.7 139.532 16.094 139.136 15.674C138.74 15.242 138.2 15.026 137.516 15.026C136.82 15.026 136.268 15.242 135.86 15.674C135.464 16.094 135.266 16.7 135.266 17.492V23H132.746V13.028H135.266V14.27C135.602 13.838 136.028 13.502 136.544 13.262C137.072 13.01 137.648 12.884 138.272 12.884ZM148.552 12.866C149.296 12.866 149.95 13.016 150.514 13.316C151.078 13.604 151.522 13.982 151.846 14.45V13.028H154.384V23.072C154.384 23.996 154.198 24.818 153.826 25.538C153.454 26.27 152.896 26.846 152.152 27.266C151.408 27.698 150.508 27.914 149.452 27.914C148.036 27.914 146.872 27.584 145.96 26.924C145.06 26.264 144.55 25.364 144.43 24.224H146.932C147.064 24.68 147.346 25.04 147.778 25.304C148.222 25.58 148.756 25.718 149.38 25.718C150.112 25.718 150.706 25.496 151.162 25.052C151.618 24.62 151.846 23.96 151.846 23.072V21.524C151.522 21.992 151.072 22.382 150.496 22.694C149.932 23.006 149.284 23.162 148.552 23.162C147.712 23.162 146.944 22.946 146.248 22.514C145.552 22.082 145 21.476 144.592 20.696C144.196 19.904 143.998 18.998 143.998 17.978C143.998 16.97 144.196 16.076 144.592 15.296C145 14.516 145.546 13.916 146.23 13.496C146.926 13.076 147.7 12.866 148.552 12.866ZM151.846 18.014C151.846 17.402 151.726 16.88 151.486 16.448C151.246 16.004 150.922 15.668 150.514 15.44C150.106 15.2 149.668 15.08 149.2 15.08C148.732 15.08 148.3 15.194 147.904 15.422C147.508 15.65 147.184 15.986 146.932 16.43C146.692 16.862 146.572 17.378 146.572 17.978C146.572 18.578 146.692 19.106 146.932 19.562C147.184 20.006 147.508 20.348 147.904 20.588C148.312 20.828 148.744 20.948 149.2 20.948C149.668 20.948 150.106 20.834 150.514 20.606C150.922 20.366 151.246 20.03 151.486 19.598C151.726 19.154 151.846 18.626 151.846 18.014ZM160.523 16.7C160.523 15.464 160.799 14.36 161.351 13.388C161.915 12.404 162.677 11.642 163.637 11.102C164.609 10.55 165.695 10.274 166.895 10.274C168.299 10.274 169.529 10.634 170.585 11.354C171.641 12.074 172.379 13.07 172.799 14.342H169.901C169.613 13.742 169.205 13.292 168.677 12.992C168.161 12.692 167.561 12.542 166.877 12.542C166.145 12.542 165.491 12.716 164.915 13.064C164.351 13.4 163.907 13.88 163.583 14.504C163.271 15.128 163.115 15.86 163.115 16.7C163.115 17.528 163.271 18.26 163.583 18.896C163.907 19.52 164.351 20.006 164.915 20.354C165.491 20.69 166.145 20.858 166.877 20.858C167.561 20.858 168.161 20.708 168.677 20.408C169.205 20.096 169.613 19.64 169.901 19.04H172.799C172.379 20.324 171.641 21.326 170.585 22.046C169.541 22.754 168.311 23.108 166.895 23.108C165.695 23.108 164.609 22.838 163.637 22.298C162.677 21.746 161.915 20.984 161.351 20.012C160.799 19.04 160.523 17.936 160.523 16.7ZM184.221 17.798C184.221 18.158 184.197 18.482 184.149 18.77H176.859C176.919 19.49 177.171 20.054 177.615 20.462C178.059 20.87 178.605 21.074 179.253 21.074C180.189 21.074 180.855 20.672 181.251 19.868H183.969C183.681 20.828 183.129 21.62 182.313 22.244C181.497 22.856 180.495 23.162 179.307 23.162C178.347 23.162 177.483 22.952 176.715 22.532C175.959 22.1 175.365 21.494 174.933 20.714C174.513 19.934 174.303 19.034 174.303 18.014C174.303 16.982 174.513 16.076 174.933 15.296C175.353 14.516 175.941 13.916 176.697 13.496C177.453 13.076 178.323 12.866 179.307 12.866C180.255 12.866 181.101 13.07 181.845 13.478C182.601 13.886 183.183 14.468 183.591 15.224C184.011 15.968 184.221 16.826 184.221 17.798ZM181.611 17.078C181.599 16.43 181.365 15.914 180.909 15.53C180.453 15.134 179.895 14.936 179.235 14.936C178.611 14.936 178.083 15.128 177.651 15.512C177.231 15.884 176.973 16.406 176.877 17.078H181.611ZM191.586 12.884C192.774 12.884 193.734 13.262 194.466 14.018C195.198 14.762 195.564 15.806 195.564 17.15V23H193.044V17.492C193.044 16.7 192.846 16.094 192.45 15.674C192.054 15.242 191.514 15.026 190.83 15.026C190.134 15.026 189.582 15.242 189.174 15.674C188.778 16.094 188.58 16.7 188.58 17.492V23H186.06V13.028H188.58V14.27C188.916 13.838 189.342 13.502 189.858 13.262C190.386 13.01 190.962 12.884 191.586 12.884ZM200.895 15.098V19.922C200.895 20.258 200.973 20.504 201.129 20.66C201.297 20.804 201.573 20.876 201.957 20.876H203.127V23H201.543C199.419 23 198.357 21.968 198.357 19.904V15.098H197.169V13.028H198.357V10.562H200.895V13.028H203.127V15.098H200.895ZM214.209 17.798C214.209 18.158 214.185 18.482 214.137 18.77H206.847C206.907 19.49 207.159 20.054 207.603 20.462C208.047 20.87 208.593 21.074 209.241 21.074C210.177 21.074 210.843 20.672 211.239 19.868H213.957C213.669 20.828 213.117 21.62 212.301 22.244C211.485 22.856 210.483 23.162 209.295 23.162C208.335 23.162 207.471 22.952 206.703 22.532C205.947 22.1 205.353 21.494 204.921 20.714C204.501 19.934 204.291 19.034 204.291 18.014C204.291 16.982 204.501 16.076 204.921 15.296C205.341 14.516 205.929 13.916 206.685 13.496C207.441 13.076 208.311 12.866 209.295 12.866C210.243 12.866 211.089 13.07 211.833 13.478C212.589 13.886 213.171 14.468 213.579 15.224C213.999 15.968 214.209 16.826 214.209 17.798ZM211.599 17.078C211.587 16.43 211.353 15.914 210.897 15.53C210.441 15.134 209.883 14.936 209.223 14.936C208.599 14.936 208.071 15.128 207.639 15.512C207.219 15.884 206.961 16.406 206.865 17.078H211.599ZM218.569 14.576C218.893 14.048 219.313 13.634 219.829 13.334C220.357 13.034 220.957 12.884 221.629 12.884V15.53H220.963C220.171 15.53 219.571 15.716 219.163 16.088C218.767 16.46 218.569 17.108 218.569 18.032V23H216.049V13.028H218.569V14.576Z" fill="white"/>
<path d="M16.4062 0C13.2417 -3.77363e-08 10.1483 0.938383 7.51713 2.69649C4.88594 4.45459 2.83518 6.95345 1.62418 9.87706C0.413176 12.8007 0.096322 16.0177 0.713685 19.1214C1.33105 22.2251 2.8549 25.0761 5.09254 27.3137C7.33018 29.5513 10.1811 31.0752 13.2848 31.6926C16.3885 32.3099 19.6056 31.9931 22.5292 30.7821C25.4528 29.5711 27.9517 27.5203 29.7098 24.8891C31.4679 22.2579 32.4062 19.1645 32.4062 16L24.4062 16C24.4062 17.5823 23.9371 19.129 23.058 20.4446C22.179 21.7602 20.9295 22.7855 19.4677 23.391C18.0059 23.9965 16.3974 24.155 14.8455 23.8463C13.2937 23.5376 11.8682 22.7757 10.7494 21.6569C9.63057 20.538 8.86865 19.1126 8.55997 17.5607C8.25129 16.0089 8.40971 14.4003 9.01521 12.9385C9.62072 11.4767 10.6461 10.2273 11.9617 9.34824C13.2773 8.46919 14.824 8 16.4062 8V0Z" fill="white"/>
<path d="M16.4062 0C14.3051 -2.5056e-08 12.2245 0.413852 10.2833 1.21793C8.3421 2.022 6.57828 3.20055 5.09254 4.68629C3.6068 6.17203 2.42825 7.93586 1.62418 9.87707C0.820102 11.8183 0.40625 13.8989 0.40625 16H8.40625C8.40625 14.9494 8.61318 13.9091 9.01521 12.9385C9.41725 11.9679 10.0065 11.086 10.7494 10.3431C11.4923 9.60028 12.3742 9.011 13.3448 8.60896C14.3154 8.20693 15.3557 8 16.4062 8V0Z" fill="#5CE1E6"/>
<circle cx="16.4062" cy="16" r="5" fill="#5CE1E6"/>
<path d="M21.4062 16C21.4062 15.3434 21.2769 14.6932 21.0256 14.0866C20.7744 13.48 20.4061 12.9288 19.9418 12.4645C19.4775 12.0002 18.9263 11.6319 18.3197 11.3806C17.713 11.1293 17.0629 11 16.4062 11C15.7496 11 15.0995 11.1293 14.4928 11.3806C13.8862 11.6319 13.335 12.0002 12.8707 12.4645C12.4064 12.9288 12.0381 13.48 11.7869 14.0866C11.5356 14.6932 11.4062 15.3434 11.4063 16L16.4062 16H21.4062Z" fill="white"/>
</svg>



