<svg width="157" height="32" viewBox="0 0 157 32" fill="none" xmlns="http://www.w3.org/2000/svg">
<path d="M41.9863 23.126C41.1103 23.126 40.3183 22.976 39.6103 22.676C38.9143 22.376 38.3623 21.944 37.9543 21.38C37.5463 20.816 37.3363 20.15 37.3243 19.382H40.0243C40.0603 19.898 40.2403 20.306 40.5643 20.606C40.9003 20.906 41.3563 21.056 41.9323 21.056C42.5203 21.056 42.9823 20.918 43.3183 20.642C43.6543 20.354 43.8223 19.982 43.8223 19.526C43.8223 19.154 43.7083 18.848 43.4803 18.608C43.2523 18.368 42.9643 18.182 42.6163 18.05C42.2803 17.906 41.8123 17.75 41.2123 17.582C40.3963 17.342 39.7303 17.108 39.2143 16.88C38.7103 16.64 38.2723 16.286 37.9003 15.818C37.5403 15.338 37.3603 14.702 37.3603 13.91C37.3603 13.166 37.5463 12.518 37.9183 11.966C38.2903 11.414 38.8123 10.994 39.4843 10.706C40.1563 10.406 40.9243 10.256 41.7883 10.256C43.0843 10.256 44.1343 10.574 44.9383 11.21C45.7543 11.834 46.2043 12.71 46.2883 13.838H43.5163C43.4923 13.406 43.3063 13.052 42.9583 12.776C42.6223 12.488 42.1723 12.344 41.6083 12.344C41.1163 12.344 40.7203 12.47 40.4203 12.722C40.1323 12.974 39.9883 13.34 39.9883 13.82C39.9883 14.156 40.0963 14.438 40.3123 14.666C40.5403 14.882 40.8163 15.062 41.1403 15.206C41.4763 15.338 41.9443 15.494 42.5443 15.674C43.3603 15.914 44.0263 16.154 44.5423 16.394C45.0583 16.634 45.5023 16.994 45.8743 17.474C46.2463 17.954 46.4323 18.584 46.4323 19.364C46.4323 20.036 46.2583 20.66 45.9102 21.236C45.5623 21.812 45.0523 22.274 44.3803 22.622C43.7083 22.958 42.9103 23.126 41.9863 23.126ZM51.551 15.098V19.922C51.551 20.258 51.629 20.504 51.785 20.66C51.953 20.804 52.229 20.876 52.613 20.876H53.783V23H52.199C50.075 23 49.013 21.968 49.013 19.904V15.098H47.825V13.028H49.013V10.562H51.551V13.028H53.783V15.098H51.551ZM60.0235 23.162C59.0635 23.162 58.1995 22.952 57.4315 22.532C56.6635 22.1 56.0575 21.494 55.6135 20.714C55.1815 19.934 54.9655 19.034 54.9655 18.014C54.9655 16.994 55.1875 16.094 55.6315 15.314C56.0875 14.534 56.7055 13.934 57.4855 13.514C58.2655 13.082 59.1355 12.866 60.0955 12.866C61.0555 12.866 61.9255 13.082 62.7055 13.514C63.4855 13.934 64.0975 14.534 64.5415 15.314C64.9975 16.094 65.2255 16.994 65.2255 18.014C65.2255 19.034 64.9915 19.934 64.5235 20.714C64.0675 21.494 63.4435 22.1 62.6515 22.532C61.8715 22.952 60.9955 23.162 60.0235 23.162ZM60.0235 20.966C60.4795 20.966 60.9055 20.858 61.3015 20.642C61.7095 20.414 62.0335 20.078 62.2735 19.634C62.5135 19.19 62.6335 18.65 62.6335 18.014C62.6335 17.066 62.3815 16.34 61.8775 15.836C61.3855 15.32 60.7795 15.062 60.0595 15.062C59.3395 15.062 58.7335 15.32 58.2415 15.836C57.7615 16.34 57.5215 17.066 57.5215 18.014C57.5215 18.962 57.7555 19.694 58.2235 20.21C58.7035 20.714 59.3035 20.966 60.0235 20.966ZM69.594 14.576C69.918 14.048 70.338 13.634 70.854 13.334C71.382 13.034 71.982 12.884 72.654 12.884V15.53H71.988C71.196 15.53 70.596 15.716 70.188 16.088C69.792 16.46 69.594 17.108 69.594 18.032V23H67.074V13.028H69.594V14.576ZM83.6214 17.798C83.6214 18.158 83.5974 18.482 83.5494 18.77H76.2594C76.3194 19.49 76.5714 20.054 77.0154 20.462C77.4594 20.87 78.0054 21.074 78.6534 21.074C79.5894 21.074 80.2554 20.672 80.6514 19.868H83.3694C83.0814 20.828 82.5294 21.62 81.7134 22.244C80.8974 22.856 79.8954 23.162 78.7074 23.162C77.7474 23.162 76.8834 22.952 76.1154 22.532C75.3594 22.1 74.7654 21.494 74.3334 20.714C73.9134 19.934 73.7034 19.034 73.7034 18.014C73.7034 16.982 73.9134 16.076 74.3334 15.296C74.7534 14.516 75.3414 13.916 76.0974 13.496C76.8534 13.076 77.7234 12.866 78.7074 12.866C79.6554 12.866 80.5014 13.07 81.2454 13.478C82.0014 13.886 82.5834 14.468 82.9914 15.224C83.4114 15.968 83.6214 16.826 83.6214 17.798ZM81.0114 17.078C80.9994 16.43 80.7654 15.914 80.3094 15.53C79.8534 15.134 79.2954 14.936 78.6354 14.936C78.0114 14.936 77.4834 15.128 77.0514 15.512C76.6314 15.884 76.3734 16.406 76.2774 17.078H81.0114ZM103.448 10.436V23H100.928V14.828L97.5618 23H95.6538L92.2698 14.828V23H89.7498V10.436H92.6118L96.6078 19.778L100.604 10.436H103.448ZM109.845 12.866C110.589 12.866 111.243 13.016 111.807 13.316C112.371 13.604 112.815 13.982 113.139 14.45V13.028H115.677V23.072C115.677 23.996 115.491 24.818 115.119 25.538C114.747 26.27 114.189 26.846 113.445 27.266C112.701 27.698 111.801 27.914 110.745 27.914C109.329 27.914 108.165 27.584 107.253 26.924C106.353 26.264 105.843 25.364 105.723 24.224H108.225C108.357 24.68 108.639 25.04 109.071 25.304C109.515 25.58 110.049 25.718 110.673 25.718C111.405 25.718 111.999 25.496 112.455 25.052C112.911 24.62 113.139 23.96 113.139 23.072V21.524C112.815 21.992 112.365 22.382 111.789 22.694C111.225 23.006 110.577 23.162 109.845 23.162C109.005 23.162 108.237 22.946 107.541 22.514C106.845 22.082 106.293 21.476 105.885 20.696C105.489 19.904 105.291 18.998 105.291 17.978C105.291 16.97 105.489 16.076 105.885 15.296C106.293 14.516 106.839 13.916 107.523 13.496C108.219 13.076 108.993 12.866 109.845 12.866ZM113.139 18.014C113.139 17.402 113.019 16.88 112.779 16.448C112.539 16.004 112.215 15.668 111.807 15.44C111.399 15.2 110.961 15.08 110.493 15.08C110.025 15.08 109.593 15.194 109.197 15.422C108.801 15.65 108.477 15.986 108.225 16.43C107.985 16.862 107.865 17.378 107.865 17.978C107.865 18.578 107.985 19.106 108.225 19.562C108.477 20.006 108.801 20.348 109.197 20.588C109.605 20.828 110.037 20.948 110.493 20.948C110.961 20.948 111.399 20.834 111.807 20.606C112.215 20.366 112.539 20.03 112.779 19.598C113.019 19.154 113.139 18.626 113.139 18.014ZM121.072 15.098V19.922C121.072 20.258 121.15 20.504 121.306 20.66C121.474 20.804 121.75 20.876 122.134 20.876H123.304V23H121.72C119.596 23 118.534 21.968 118.534 19.904V15.098H117.346V13.028H118.534V10.562H121.072V13.028H123.304V15.098H121.072ZM133.744 23.126C132.868 23.126 132.076 22.976 131.368 22.676C130.672 22.376 130.12 21.944 129.712 21.38C129.304 20.816 129.094 20.15 129.082 19.382H131.782C131.818 19.898 131.998 20.306 132.322 20.606C132.658 20.906 133.114 21.056 133.69 21.056C134.278 21.056 134.74 20.918 135.076 20.642C135.412 20.354 135.58 19.982 135.58 19.526C135.58 19.154 135.466 18.848 135.238 18.608C135.01 18.368 134.722 18.182 134.374 18.05C134.038 17.906 133.57 17.75 132.97 17.582C132.154 17.342 131.488 17.108 130.972 16.88C130.468 16.64 130.03 16.286 129.658 15.818C129.298 15.338 129.118 14.702 129.118 13.91C129.118 13.166 129.304 12.518 129.676 11.966C130.048 11.414 130.57 10.994 131.242 10.706C131.914 10.406 132.682 10.256 133.546 10.256C134.842 10.256 135.892 10.574 136.696 11.21C137.512 11.834 137.962 12.71 138.046 13.838H135.274C135.25 13.406 135.064 13.052 134.716 12.776C134.38 12.488 133.93 12.344 133.366 12.344C132.874 12.344 132.478 12.47 132.178 12.722C131.89 12.974 131.746 13.34 131.746 13.82C131.746 14.156 131.854 14.438 132.07 14.666C132.298 14.882 132.574 15.062 132.898 15.206C133.234 15.338 133.702 15.494 134.302 15.674C135.118 15.914 135.784 16.154 136.3 16.394C136.816 16.634 137.26 16.994 137.632 17.474C138.004 17.954 138.19 18.584 138.19 19.364C138.19 20.036 138.016 20.66 137.668 21.236C137.32 21.812 136.81 22.274 136.138 22.622C135.466 22.958 134.668 23.126 133.744 23.126ZM149.915 13.028L143.741 27.716H141.059L143.219 22.748L139.223 13.028H142.049L144.623 19.994L147.233 13.028H149.915ZM154.207 15.098V19.922C154.207 20.258 154.285 20.504 154.441 20.66C154.609 20.804 154.885 20.876 155.269 20.876H156.439V23H154.855C152.731 23 151.669 21.968 151.669 19.904V15.098H150.481V13.028H151.669V10.562H154.207V13.028H156.439V15.098H154.207Z" fill="white"/>
<path d="M16.4063 0C13.2417 -3.77363e-08 10.1483 0.938383 7.51713 2.69649C4.88594 4.45459 2.83518 6.95345 1.62418 9.87706C0.413176 12.8007 0.096322 16.0177 0.713685 19.1214C1.33105 22.2251 2.8549 25.0761 5.09254 27.3137C7.33018 29.5513 10.1811 31.0752 13.2848 31.6926C16.3885 32.3099 19.6056 31.9931 22.5292 30.7821C25.4528 29.5711 27.9517 27.5203 29.7098 24.8891C31.4679 22.2579 32.4062 19.1645 32.4062 16L24.4062 16C24.4062 17.5823 23.9371 19.129 23.058 20.4446C22.179 21.7602 20.9295 22.7855 19.4677 23.391C18.0059 23.9965 16.3974 24.155 14.8455 23.8463C13.2937 23.5376 11.8682 22.7757 10.7494 21.6569C9.63057 20.538 8.86865 19.1126 8.55997 17.5607C8.25129 16.0089 8.40971 14.4003 9.01521 12.9385C9.62072 11.4767 10.6461 10.2273 11.9617 9.34824C13.2773 8.46919 14.824 8 16.4063 8L16.4063 0Z" fill="white"/>
<path d="M16.4063 0C14.3051 -2.5056e-08 12.2245 0.413852 10.2833 1.21793C8.34211 2.022 6.57828 3.20055 5.09254 4.68629C3.6068 6.17203 2.42825 7.93586 1.62418 9.87707C0.820102 11.8183 0.40625 13.8989 0.40625 16L8.40625 16C8.40625 14.9494 8.61318 13.9091 9.01521 12.9385C9.41725 11.9679 10.0065 11.086 10.7494 10.3431C11.4923 9.60028 12.3742 9.011 13.3448 8.60896C14.3154 8.20693 15.3557 8 16.4063 8L16.4063 0Z" fill="#5CE1E6"/>
<circle cx="16.4062" cy="16" r="5" fill="#5CE1E6"/>
<path d="M21.4062 16C21.4062 15.3434 21.2769 14.6932 21.0256 14.0866C20.7744 13.48 20.4061 12.9288 19.9418 12.4645C19.4775 12.0002 18.9263 11.6319 18.3197 11.3806C17.713 11.1293 17.0629 11 16.4062 11C15.7496 11 15.0995 11.1293 14.4928 11.3806C13.8862 11.6319 13.335 12.0002 12.8707 12.4645C12.4064 12.9288 12.0381 13.48 11.7869 14.0866C11.5356 14.6932 11.4062 15.3434 11.4063 16L16.4062 16H21.4062Z" fill="white"/>
</svg>


